<svg width="187" height="19" viewBox="0 0 187 19" fill="none" xmlns="http://www.w3.org/2000/svg">
<path d="M108.736 17.8484C108.552 17.8484 108.401 17.7898 108.283 17.6725C108.166 17.5552 108.107 17.4043 108.107 17.22V0.879458C108.107 0.695103 108.166 0.544268 108.283 0.426952C108.401 0.309635 108.552 0.250977 108.736 0.250977H111.979C112.163 0.250977 112.314 0.309635 112.431 0.426952C112.565 0.544268 112.632 0.695103 112.632 0.879458V6.93802H114.166L117.861 0.728622C117.945 0.594547 118.063 0.48561 118.213 0.401813C118.364 0.301255 118.557 0.250977 118.792 0.250977H122.437C122.588 0.250977 122.713 0.309635 122.814 0.426952C122.914 0.527509 122.965 0.644825 122.965 0.778901C122.965 0.879458 122.931 0.980015 122.864 1.08057L118.188 8.7229L123.317 16.9937C123.367 17.0608 123.392 17.1529 123.392 17.2702C123.392 17.4378 123.333 17.5803 123.216 17.6976C123.116 17.7982 122.981 17.8484 122.814 17.8484H119.093C118.825 17.8484 118.624 17.7898 118.49 17.6725C118.373 17.5384 118.28 17.4378 118.213 17.3708L114.317 10.9603H112.632V17.22C112.632 17.3876 112.565 17.5384 112.431 17.6725C112.314 17.7898 112.163 17.8484 111.979 17.8484H108.736Z" fill="#343A40"/>
<path d="M89.1451 17.8484C88.9607 17.8484 88.8099 17.7898 88.6926 17.6725C88.5753 17.5384 88.5166 17.3792 88.5166 17.1948V0.879458C88.5166 0.695103 88.5753 0.544268 88.6926 0.426952C88.8266 0.309635 88.9775 0.250977 89.1451 0.250977H92.388C92.5724 0.250977 92.7232 0.309635 92.8406 0.426952C92.9746 0.544268 93.0417 0.695103 93.0417 0.879458V10.9854L100.181 0.728622C100.265 0.594547 100.374 0.48561 100.508 0.401813C100.642 0.301255 100.818 0.250977 101.036 0.250977H103.952C104.12 0.250977 104.262 0.309635 104.379 0.426952C104.514 0.544268 104.581 0.695103 104.581 0.879458V17.22C104.581 17.3876 104.514 17.5384 104.379 17.6725C104.262 17.7898 104.12 17.8484 103.952 17.8484H100.709C100.525 17.8484 100.366 17.7898 100.231 17.6725C100.114 17.5384 100.056 17.3876 100.056 17.22V7.46594L92.916 17.3708C92.8489 17.4714 92.7484 17.5803 92.6143 17.6976C92.497 17.7982 92.3126 17.8484 92.0612 17.8484H89.1451Z" fill="#343A40"/>
<path d="M80.9693 17.8484C80.785 17.8484 80.6342 17.7898 80.5168 17.6725C80.3995 17.5384 80.3409 17.3876 80.3409 17.22V11.815C80.0727 12.0329 79.7375 12.2173 79.3353 12.3681C78.9331 12.5189 78.4973 12.6279 78.0281 12.6949C77.5756 12.7619 77.1147 12.7955 76.6454 12.7955C74.5169 12.7955 72.9332 12.2759 71.8941 11.2368C70.855 10.181 70.3354 8.57207 70.3354 6.41009V0.879458C70.3354 0.695103 70.3941 0.544268 70.5114 0.426952C70.6455 0.309635 70.7963 0.250977 70.9639 0.250977H74.232C74.4164 0.250977 74.5672 0.309635 74.6845 0.426952C74.8019 0.544268 74.8605 0.695103 74.8605 0.879458V6.20898C74.8605 7.04695 75.07 7.66705 75.489 8.06928C75.908 8.45475 76.6035 8.64748 77.5755 8.64748C77.8437 8.64748 78.137 8.62234 78.4554 8.57207C78.7739 8.52179 79.0755 8.43799 79.3604 8.32067C79.6453 8.20336 79.88 8.04414 80.0643 7.84303C80.2487 7.64191 80.3409 7.3989 80.3409 7.11399V0.879458C80.3409 0.695103 80.3995 0.544268 80.5168 0.426952C80.6342 0.309635 80.785 0.250977 80.9693 0.250977H84.2123C84.3967 0.250977 84.5475 0.309635 84.6648 0.426952C84.7989 0.544268 84.8659 0.695103 84.8659 0.879458V17.22C84.8659 17.3876 84.7989 17.5384 84.6648 17.6725C84.5475 17.7898 84.3967 17.8484 84.2123 17.8484H80.9693Z" fill="#343A40"/>
<path d="M59.6038 17.8484C59.4195 17.8484 59.2686 17.7898 59.1513 17.6725C59.034 17.5384 58.9753 17.3876 58.9753 17.22V4.19784H54.5006C54.3162 4.19784 54.1654 4.13918 54.048 4.02186C53.9307 3.88779 53.8721 3.73695 53.8721 3.56936V0.879458C53.8721 0.695103 53.9307 0.544268 54.048 0.426952C54.1654 0.309635 54.3162 0.250977 54.5006 0.250977H68.0255C68.2098 0.250977 68.3607 0.309635 68.478 0.426952C68.5953 0.544268 68.6539 0.695103 68.6539 0.879458V3.56936C68.6539 3.73695 68.5953 3.88779 68.478 4.02186C68.3607 4.13918 68.2098 4.19784 68.0255 4.19784H63.5507V17.22C63.5507 17.3876 63.492 17.5384 63.3747 17.6725C63.2574 17.7898 63.1066 17.8484 62.9222 17.8484H59.6038Z" fill="#343A40"/>
<path d="M39.6768 17.8484C39.4925 17.8484 39.3416 17.7898 39.2243 17.6725C39.107 17.5384 39.0483 17.3876 39.0483 17.22V0.879458C39.0483 0.695103 39.107 0.544268 39.2243 0.426952C39.3416 0.309635 39.4925 0.250977 39.6768 0.250977H51.4168C51.6012 0.250977 51.752 0.309635 51.8694 0.426952C51.9867 0.544268 52.0453 0.695103 52.0453 0.879458V3.24255C52.0453 3.4269 51.9867 3.57774 51.8694 3.69505C51.752 3.81237 51.6012 3.87103 51.4168 3.87103H43.3974V7.26483H50.8638C51.0481 7.26483 51.199 7.33186 51.3163 7.46594C51.4336 7.58326 51.4923 7.73409 51.4923 7.91845V10.1056C51.4923 10.2732 51.4336 10.424 51.3163 10.5581C51.199 10.6754 51.0481 10.734 50.8638 10.734H43.3974V14.2284H51.618C51.8023 14.2284 51.9532 14.2871 52.0705 14.4044C52.1878 14.5217 52.2464 14.6725 52.2464 14.8569V17.22C52.2464 17.3876 52.1878 17.5384 52.0705 17.6725C51.9532 17.7898 51.8023 17.8484 51.618 17.8484H39.6768Z" fill="#343A40"/>
<path d="M18.858 17.8484C18.6904 17.8484 18.5395 17.7898 18.4055 17.6725C18.2882 17.5384 18.2295 17.3876 18.2295 17.22V0.879458C18.2295 0.695103 18.2882 0.544268 18.4055 0.426952C18.5395 0.309635 18.6904 0.250977 18.858 0.250977H21.573C21.8579 0.250977 22.0674 0.326394 22.2015 0.47723C22.3356 0.611306 22.4194 0.720243 22.4529 0.80404L26.8774 8.7229L31.3019 0.80404C31.3522 0.720243 31.436 0.611306 31.5533 0.47723C31.6874 0.326394 31.8969 0.250977 32.1818 0.250977H34.8717C35.056 0.250977 35.2069 0.309635 35.3242 0.426952C35.4583 0.544268 35.5253 0.695103 35.5253 0.879458V17.22C35.5253 17.3876 35.4583 17.5384 35.3242 17.6725C35.2069 17.7898 35.056 17.8484 34.8717 17.8484H31.8801C31.6957 17.8484 31.5365 17.7898 31.4025 17.6725C31.2851 17.5384 31.2265 17.3876 31.2265 17.22V7.79275L28.4109 13.0469C28.3271 13.1977 28.2182 13.3318 28.0841 13.4491C27.95 13.5664 27.7656 13.6251 27.531 13.6251H26.2238C25.9891 13.6251 25.8048 13.5664 25.6707 13.4491C25.5366 13.3318 25.4277 13.1977 25.3439 13.0469L22.5032 7.79275V17.22C22.5032 17.3876 22.4445 17.5384 22.3272 17.6725C22.2099 17.7898 22.059 17.8484 21.8747 17.8484H18.858Z" fill="#343A40"/>
<path d="M7.79317 18.1003C6.21777 18.1003 4.86025 17.8405 3.72061 17.3209C2.58096 16.8014 1.69271 16.0388 1.05585 15.0333C0.435747 14.0277 0.0921771 12.7791 0.0251391 11.2875C0.00837965 10.6004 0 9.86296 0 9.07527C0 8.28757 0.00837965 7.53339 0.0251391 6.81274C0.0921771 5.35466 0.444127 4.11446 1.08099 3.09213C1.71785 2.0698 2.6061 1.29886 3.74575 0.779317C4.88539 0.259772 6.23453 0 7.79317 0C8.89929 0 9.92162 0.142456 10.8602 0.427368C11.7987 0.695519 12.6199 1.09775 13.3238 1.63405C14.0277 2.1536 14.5724 2.79046 14.9579 3.54463C15.3601 4.28205 15.5696 5.12003 15.5863 6.05856C15.6031 6.20939 15.5528 6.33509 15.4355 6.43565C15.3349 6.5362 15.2092 6.58648 15.0584 6.58648H11.6646C11.4467 6.58648 11.2791 6.54458 11.1618 6.46079C11.0445 6.36023 10.944 6.18425 10.8602 5.93286C10.6255 5.04461 10.2401 4.44127 9.70375 4.12284C9.1842 3.78765 8.53896 3.62005 7.76803 3.62005C6.84625 3.62005 6.11722 3.87982 5.58091 4.39937C5.04461 4.90215 4.75132 5.74851 4.70104 6.93843C4.65076 8.31271 4.65076 9.72051 4.70104 11.1618C4.75132 12.3517 5.04461 13.2065 5.58091 13.726C6.11722 14.2288 6.84625 14.4802 7.76803 14.4802C8.53896 14.4802 9.19258 14.3126 9.72889 13.9774C10.2652 13.6422 10.6423 13.0389 10.8602 12.1674C10.9272 11.916 11.0194 11.7484 11.1367 11.6646C11.2708 11.5641 11.4467 11.5138 11.6646 11.5138H15.0584C15.2092 11.5138 15.3349 11.5641 15.4355 11.6646C15.5528 11.7652 15.6031 11.8909 15.5863 12.0417C15.5696 12.9802 15.3601 13.8266 14.9579 14.5808C14.5724 15.3182 14.0277 15.955 13.3238 16.4913C12.6199 17.0109 11.7987 17.4131 10.8602 17.698C9.92162 17.9662 8.89929 18.1003 7.79317 18.1003Z" fill="#343A40"/>
<path d="M179.207 18.1003C177.665 18.1003 176.324 17.8489 175.185 17.3461C174.045 16.8433 173.157 16.0891 172.52 15.0835C171.883 14.0612 171.531 12.7875 171.464 11.2624C171.447 10.5417 171.439 9.82106 171.439 9.10041C171.439 8.36299 171.447 7.63395 171.464 6.91329C171.531 5.40494 171.883 4.1396 172.52 3.11727C173.174 2.07818 174.07 1.29886 175.21 0.779317C176.366 0.259772 177.699 0 179.207 0C180.732 0 182.064 0.259772 183.204 0.779317C184.344 1.29886 185.24 2.07818 185.894 3.11727C186.548 4.1396 186.9 5.40494 186.95 6.91329C186.983 7.63395 187 8.36299 187 9.10041C187 9.82106 186.983 10.5417 186.95 11.2624C186.9 12.7875 186.548 14.0612 185.894 15.0835C185.257 16.0891 184.369 16.8433 183.229 17.3461C182.09 17.8489 180.749 18.1003 179.207 18.1003ZM179.207 14.4802C180.095 14.4802 180.816 14.2121 181.369 13.6757C181.939 13.1394 182.24 12.2847 182.274 11.1115C182.307 10.3741 182.324 9.67861 182.324 9.02499C182.324 8.37137 182.307 7.69261 182.274 6.98871C182.24 6.20101 182.09 5.56415 181.821 5.07813C181.57 4.57534 181.218 4.20663 180.766 3.972C180.313 3.73737 179.794 3.62005 179.207 3.62005C178.637 3.62005 178.126 3.73737 177.673 3.972C177.221 4.20663 176.861 4.57534 176.593 5.07813C176.324 5.56415 176.174 6.20101 176.14 6.98871C176.123 7.69261 176.115 8.37137 176.115 9.02499C176.115 9.67861 176.123 10.3741 176.14 11.1115C176.19 12.2847 176.492 13.1394 177.045 13.6757C177.615 14.2121 178.336 14.4802 179.207 14.4802Z" fill="#343A40"/>
<path d="M155.657 17.8484C155.472 17.8484 155.322 17.7898 155.204 17.6725C155.087 17.5384 155.028 17.3876 155.028 17.22V0.879458C155.028 0.695103 155.087 0.544268 155.204 0.426952C155.322 0.309635 155.472 0.250977 155.657 0.250977H162.696C164.087 0.250977 165.294 0.46885 166.316 0.904597C167.355 1.32358 168.159 1.96045 168.729 2.81518C169.316 3.66991 169.609 4.7509 169.609 6.05814C169.609 7.34862 169.316 8.41285 168.729 9.25083C168.159 10.0888 167.355 10.7089 166.316 11.1111C165.294 11.5134 164.087 11.7145 162.696 11.7145H159.704V17.22C159.704 17.3876 159.637 17.5384 159.503 17.6725C159.386 17.7898 159.235 17.8484 159.051 17.8484H155.657ZM159.629 8.24526H162.57C163.291 8.24526 163.861 8.0609 164.28 7.69219C164.715 7.32348 164.933 6.76204 164.933 6.00786C164.933 5.371 164.749 4.8347 164.38 4.39895C164.011 3.9632 163.408 3.74533 162.57 3.74533H159.629V8.24526Z" fill="#343A40"/>
<path d="M136.925 17.8484C136.741 17.8484 136.59 17.7898 136.473 17.6725C136.356 17.5552 136.297 17.4043 136.297 17.22V0.879458C136.297 0.695103 136.356 0.544268 136.473 0.426952C136.59 0.309635 136.741 0.250977 136.925 0.250977H150.878C151.062 0.250977 151.213 0.309635 151.33 0.426952C151.447 0.544268 151.506 0.695103 151.506 0.879458V17.22C151.506 17.3876 151.447 17.5384 151.33 17.6725C151.213 17.7898 151.062 17.8484 150.878 17.8484H147.635C147.45 17.8484 147.299 17.7898 147.182 17.6725C147.065 17.5384 147.006 17.3876 147.006 17.22V4.27326H140.822V17.22C140.822 17.3876 140.755 17.5384 140.621 17.6725C140.504 17.7898 140.353 17.8484 140.168 17.8484H136.925Z" fill="#343A40"/>
<rect x="126.249" y="0.348633" width="8.53786" height="2.37163" rx="0.474325" fill="#12B886"/>
<rect x="123.403" y="4.14355" width="11.3838" height="2.37163" rx="0.474325" fill="#12B886"/>
<rect x="120.557" y="7.9375" width="14.2298" height="2.37163" rx="0.474325" fill="#12B886"/>
<rect x="123.403" y="11.7324" width="11.3838" height="2.37163" rx="0.474325" fill="#12B886"/>
<rect x="126.249" y="15.5273" width="8.53786" height="2.37163" rx="0.474325" fill="#12B886"/>
</svg>
