<svg width="395" height="39" viewBox="0 0 395 39" fill="none" xmlns="http://www.w3.org/2000/svg">
<path d="M229.243 37.63C228.855 37.63 228.537 37.5063 228.289 37.259C228.042 37.0117 227.918 36.6937 227.918 36.305V1.855C227.918 1.46633 228.042 1.14833 228.289 0.901C228.537 0.653666 228.855 0.529999 229.243 0.529999H236.08C236.469 0.529999 236.787 0.653666 237.034 0.901C237.317 1.14833 237.458 1.46633 237.458 1.855V14.628H240.691L248.482 1.537C248.659 1.25433 248.906 1.02467 249.224 0.848001C249.542 0.635999 249.949 0.529999 250.443 0.529999H258.128C258.446 0.529999 258.711 0.653666 258.923 0.901C259.135 1.113 259.241 1.36033 259.241 1.643C259.241 1.855 259.171 2.067 259.029 2.279L249.171 18.391L259.983 35.828C260.089 35.9693 260.142 36.1637 260.142 36.411C260.142 36.7643 260.019 37.0647 259.771 37.312C259.559 37.524 259.277 37.63 258.923 37.63H251.079C250.514 37.63 250.09 37.5063 249.807 37.259C249.56 36.9763 249.366 36.7643 249.224 36.623L241.009 23.108H237.458V36.305C237.458 36.6583 237.317 36.9763 237.034 37.259C236.787 37.5063 236.469 37.63 236.08 37.63H229.243Z" fill="white"/>
<path d="M187.94 37.63C187.552 37.63 187.234 37.5063 186.986 37.259C186.739 36.9763 186.615 36.6407 186.615 36.252V1.855C186.615 1.46633 186.739 1.14833 186.986 0.901C187.269 0.653666 187.587 0.529999 187.94 0.529999H194.777C195.166 0.529999 195.484 0.653666 195.731 0.901C196.014 1.14833 196.155 1.46633 196.155 1.855V23.161L211.207 1.537C211.384 1.25433 211.614 1.02467 211.896 0.848001C212.179 0.635999 212.55 0.529999 213.009 0.529999H219.157C219.511 0.529999 219.811 0.653666 220.058 0.901C220.341 1.14833 220.482 1.46633 220.482 1.855V36.305C220.482 36.6583 220.341 36.9763 220.058 37.259C219.811 37.5063 219.511 37.63 219.157 37.63H212.32C211.932 37.63 211.596 37.5063 211.313 37.259C211.066 36.9763 210.942 36.6583 210.942 36.305V15.741L195.89 36.623C195.749 36.835 195.537 37.0647 195.254 37.312C195.007 37.524 194.618 37.63 194.088 37.63H187.94Z" fill="white"/>
<path d="M170.704 37.63C170.315 37.63 169.997 37.5063 169.75 37.259C169.503 36.9763 169.379 36.6583 169.379 36.305V24.91C168.814 25.3693 168.107 25.758 167.259 26.076C166.411 26.394 165.492 26.6237 164.503 26.765C163.549 26.9063 162.577 26.977 161.588 26.977C157.101 26.977 153.762 25.8817 151.571 23.691C149.38 21.465 148.285 18.073 148.285 13.515V1.855C148.285 1.46633 148.409 1.14833 148.656 0.901C148.939 0.653666 149.257 0.529999 149.61 0.529999H156.5C156.889 0.529999 157.207 0.653666 157.454 0.901C157.701 1.14833 157.825 1.46633 157.825 1.855V13.091C157.825 14.8577 158.267 16.165 159.15 17.013C160.033 17.8257 161.5 18.232 163.549 18.232C164.114 18.232 164.733 18.179 165.404 18.073C166.075 17.967 166.711 17.7903 167.312 17.543C167.913 17.2957 168.407 16.96 168.796 16.536C169.185 16.112 169.379 15.5997 169.379 14.999V1.855C169.379 1.46633 169.503 1.14833 169.75 0.901C169.997 0.653666 170.315 0.529999 170.704 0.529999H177.541C177.93 0.529999 178.248 0.653666 178.495 0.901C178.778 1.14833 178.919 1.46633 178.919 1.855V36.305C178.919 36.6583 178.778 36.9763 178.495 37.259C178.248 37.5063 177.93 37.63 177.541 37.63H170.704Z" fill="white"/>
<path d="M125.66 37.63C125.271 37.63 124.953 37.5063 124.706 37.259C124.459 36.9763 124.335 36.6583 124.335 36.305V8.851H114.901C114.512 8.851 114.194 8.72733 113.947 8.48C113.7 8.19733 113.576 7.87933 113.576 7.526V1.855C113.576 1.46633 113.7 1.14833 113.947 0.901C114.194 0.653666 114.512 0.529999 114.901 0.529999H143.415C143.804 0.529999 144.122 0.653666 144.369 0.901C144.616 1.14833 144.74 1.46633 144.74 1.855V7.526C144.74 7.87933 144.616 8.19733 144.369 8.48C144.122 8.72733 143.804 8.851 143.415 8.851H133.981V36.305C133.981 36.6583 133.857 36.9763 133.61 37.259C133.363 37.5063 133.045 37.63 132.656 37.63H125.66Z" fill="white"/>
<path d="M83.6485 37.63C83.2598 37.63 82.9418 37.5063 82.6945 37.259C82.4472 36.9763 82.3235 36.6583 82.3235 36.305V1.855C82.3235 1.46633 82.4472 1.14833 82.6945 0.901C82.9418 0.653666 83.2598 0.529999 83.6485 0.529999H108.399C108.788 0.529999 109.106 0.653666 109.353 0.901C109.601 1.14833 109.724 1.46633 109.724 1.855V6.837C109.724 7.22567 109.601 7.54366 109.353 7.791C109.106 8.03833 108.788 8.162 108.399 8.162H91.4925V15.317H107.233C107.622 15.317 107.94 15.4583 108.187 15.741C108.435 15.9883 108.558 16.3063 108.558 16.695V21.306C108.558 21.6593 108.435 21.9773 108.187 22.26C107.94 22.5073 107.622 22.631 107.233 22.631H91.4925V29.998H108.823C109.212 29.998 109.53 30.1217 109.777 30.369C110.025 30.6163 110.148 30.9343 110.148 31.323V36.305C110.148 36.6583 110.025 36.9763 109.777 37.259C109.53 37.5063 109.212 37.63 108.823 37.63H83.6485Z" fill="white"/>
<path d="M39.7579 37.63C39.4045 37.63 39.0865 37.5063 38.8039 37.259C38.5565 36.9763 38.4329 36.6583 38.4329 36.305V1.855C38.4329 1.46633 38.5565 1.14833 38.8039 0.901C39.0865 0.653666 39.4045 0.529999 39.7579 0.529999H45.4819C46.0825 0.529999 46.5242 0.688998 46.8069 1.007C47.0895 1.28967 47.2662 1.51933 47.3369 1.696L56.6649 18.391L65.9929 1.696C66.0989 1.51933 66.2755 1.28967 66.5229 1.007C66.8055 0.688998 67.2472 0.529999 67.8479 0.529999H73.5189C73.9075 0.529999 74.2255 0.653666 74.4729 0.901C74.7555 1.14833 74.8969 1.46633 74.8969 1.855V36.305C74.8969 36.6583 74.7555 36.9763 74.4729 37.259C74.2255 37.5063 73.9075 37.63 73.5189 37.63H67.2119C66.8232 37.63 66.4875 37.5063 66.2049 37.259C65.9575 36.9763 65.8339 36.6583 65.8339 36.305V16.43L59.8979 27.507C59.7212 27.825 59.4915 28.1077 59.2089 28.355C58.9262 28.6023 58.5375 28.726 58.0429 28.726H55.2869C54.7922 28.726 54.4035 28.6023 54.1209 28.355C53.8382 28.1077 53.6085 27.825 53.4319 27.507L47.4429 16.43V36.305C47.4429 36.6583 47.3192 36.9763 47.0719 37.259C46.8245 37.5063 46.5065 37.63 46.1179 37.63H39.7579Z" fill="white"/>
<path d="M16.43 38.16C13.1087 38.16 10.2467 37.6123 7.844 36.517C5.44133 35.4217 3.56867 33.814 2.226 31.694C0.918666 29.574 0.194333 26.9417 0.0529997 23.797C0.0176665 22.3483 0 20.7937 0 19.133C0 17.4723 0.0176665 15.8823 0.0529997 14.363C0.194333 11.289 0.936333 8.67433 2.279 6.519C3.62167 4.36367 5.49433 2.73834 7.897 1.643C10.2997 0.547667 13.144 0 16.43 0C18.762 0 20.9173 0.300334 22.896 0.901001C24.8747 1.46633 26.606 2.31433 28.09 3.445C29.574 4.54033 30.7223 5.883 31.535 7.473C32.383 9.02767 32.8247 10.7943 32.86 12.773C32.8953 13.091 32.7893 13.356 32.542 13.568C32.33 13.78 32.065 13.886 31.747 13.886H24.592C24.1327 13.886 23.7793 13.7977 23.532 13.621C23.2847 13.409 23.0727 13.038 22.896 12.508C22.4013 10.6353 21.5887 9.36334 20.458 8.692C19.3627 7.98533 18.0023 7.632 16.377 7.632C14.4337 7.632 12.8967 8.17967 11.766 9.275C10.6353 10.335 10.017 12.1193 9.911 14.628C9.805 17.5253 9.805 20.4933 9.911 23.532C10.017 26.0407 10.6353 27.8427 11.766 28.938C12.8967 29.998 14.4337 30.528 16.377 30.528C18.0023 30.528 19.3803 30.1747 20.511 29.468C21.6417 28.7613 22.4367 27.4893 22.896 25.652C23.0373 25.122 23.2317 24.7687 23.479 24.592C23.7617 24.38 24.1327 24.274 24.592 24.274H31.747C32.065 24.274 32.33 24.38 32.542 24.592C32.7893 24.804 32.8953 25.069 32.86 25.387C32.8247 27.3657 32.383 29.15 31.535 30.74C30.7223 32.2947 29.574 33.6373 28.09 34.768C26.606 35.8633 24.8747 36.7113 22.896 37.312C20.9173 37.8773 18.762 38.16 16.43 38.16Z" fill="white"/>
<path d="M377.814 38.16C374.564 38.16 371.737 37.63 369.334 36.57C366.932 35.51 365.059 33.92 363.716 31.8C362.373 29.6447 361.631 26.9593 361.49 23.744C361.455 22.2247 361.437 20.7053 361.437 19.186C361.437 17.6313 361.455 16.0943 361.49 14.575C361.631 11.395 362.373 8.72733 363.716 6.572C365.094 4.38133 366.985 2.73834 369.387 1.643C371.825 0.547667 374.634 0 377.814 0C381.03 0 383.839 0.547667 386.241 1.643C388.644 2.73834 390.534 4.38133 391.912 6.572C393.29 8.72733 394.032 11.395 394.138 14.575C394.209 16.0943 394.244 17.6313 394.244 19.186C394.244 20.7053 394.209 22.2247 394.138 23.744C394.032 26.9593 393.29 29.6447 391.912 31.8C390.57 33.92 388.697 35.51 386.294 36.57C383.891 37.63 381.065 38.16 377.814 38.16ZM377.814 30.528C379.687 30.528 381.206 29.9627 382.372 28.832C383.574 27.7013 384.209 25.8993 384.28 23.426C384.351 21.8713 384.386 20.405 384.386 19.027C384.386 17.649 384.351 16.218 384.28 14.734C384.209 13.0733 383.891 11.7307 383.326 10.706C382.796 9.646 382.054 8.86867 381.1 8.374C380.146 7.87933 379.051 7.632 377.814 7.632C376.613 7.632 375.535 7.87933 374.581 8.374C373.627 8.86867 372.868 9.646 372.302 10.706C371.737 11.7307 371.419 13.0733 371.348 14.734C371.313 16.218 371.295 17.649 371.295 19.027C371.295 20.405 371.313 21.8713 371.348 23.426C371.454 25.8993 372.09 27.7013 373.256 28.832C374.457 29.9627 375.977 30.528 377.814 30.528Z" fill="white"/>
<path d="M328.165 37.63C327.776 37.63 327.458 37.5063 327.211 37.259C326.963 36.9763 326.84 36.6583 326.84 36.305V1.855C326.84 1.46633 326.963 1.14833 327.211 0.901C327.458 0.653666 327.776 0.529999 328.165 0.529999H343.005C345.937 0.529999 348.481 0.989332 350.637 1.908C352.827 2.79133 354.523 4.134 355.725 5.936C356.961 7.738 357.58 10.017 357.58 12.773C357.58 15.4937 356.961 17.7373 355.725 19.504C354.523 21.2707 352.827 22.578 350.637 23.426C348.481 24.274 345.937 24.698 343.005 24.698H336.698V36.305C336.698 36.6583 336.556 36.9763 336.274 37.259C336.026 37.5063 335.708 37.63 335.32 37.63H328.165ZM336.539 17.384H342.74C344.259 17.384 345.46 16.9953 346.344 16.218C347.262 15.4407 347.722 14.257 347.722 12.667C347.722 11.3243 347.333 10.1937 346.556 9.275C345.778 8.35633 344.506 7.897 342.74 7.897H336.539V17.384Z" fill="white"/>
<path d="M288.674 37.63C288.285 37.63 287.967 37.5063 287.72 37.259C287.472 37.0117 287.349 36.6937 287.349 36.305V1.855C287.349 1.46633 287.472 1.14833 287.72 0.901C287.967 0.653666 288.285 0.529999 288.674 0.529999H318.089C318.477 0.529999 318.795 0.653666 319.043 0.901C319.29 1.14833 319.414 1.46633 319.414 1.855V36.305C319.414 36.6583 319.29 36.9763 319.043 37.259C318.795 37.5063 318.477 37.63 318.089 37.63H311.252C310.863 37.63 310.545 37.5063 310.298 37.259C310.05 36.9763 309.927 36.6583 309.927 36.305V9.01H296.889V36.305C296.889 36.6583 296.747 36.9763 296.465 37.259C296.217 37.5063 295.899 37.63 295.511 37.63H288.674Z" fill="white"/>
<rect x="266.165" y="0.734619" width="18" height="5" rx="1" fill="#12B886"/>
<rect x="260.165" y="8.73462" width="24" height="5" rx="1" fill="#12B886"/>
<rect x="254.165" y="16.7346" width="30" height="5" rx="1" fill="#12B886"/>
<rect x="260.165" y="24.7346" width="24" height="5" rx="1" fill="#12B886"/>
<rect x="266.165" y="32.7346" width="18" height="5" rx="1" fill="#12B886"/>
</svg>
