<svg width="12" height="12" viewBox="0 0 12 12" fill="none" xmlns="http://www.w3.org/2000/svg">
<path fill-rule="evenodd" clip-rule="evenodd" d="M5.64632 3.14645C5.84156 2.95118 6.15812 2.95118 6.35337 3.14645L7.85325 4.64645C8.0485 4.84171 8.0485 5.15829 7.85325 5.35355C7.658 5.54882 7.34144 5.54882 7.1462 5.35355L5.99984 4.20711L4.85349 5.35355C4.65824 5.54882 4.34168 5.54882 4.14644 5.35355C3.95119 5.15829 3.95119 4.84171 4.14644 4.64645L5.64632 3.14645ZM4.14644 6.64645C4.34168 6.45118 4.65824 6.45118 4.85349 6.64645L5.99984 7.79289L7.1462 6.64645C7.34144 6.45118 7.658 6.45118 7.85325 6.64645C8.0485 6.84171 8.0485 7.15829 7.85325 7.35355L6.35337 8.85355C6.15812 9.04882 5.84156 9.04882 5.64632 8.85355L4.14644 7.35355C3.95119 7.15829 3.95119 6.84171 4.14644 6.64645Z" fill="#868E96"/>
</svg>
